<?xml version="1.0" encoding="UTF-8"?>
<!-- Generator: Adobe Illustrator 15.0.0, SVG Export Plug-In . SVG Version: 6.00 Build 0)  -->
<!DOCTYPE svg PUBLIC "-//W3C//DTD SVG 1.1//EN" "http://www.w3.org/Graphics/SVG/1.1/DTD/svg11.dtd">
<svg version="1.1" id="Layer_1" xmlns="http://www.w3.org/2000/svg" xmlns:xlink="http://www.w3.org/1999/xlink" x="0px" y="0px" width="283.46px" height="283.46px" viewBox="0 0 283.46 283.46" enable-background="new 0 0 283.46 283.46" xml:space="preserve">
<g>
	<path fill="#000000" d="M142.132-0.085c-78.293,0-141.781,63.47-141.781,141.77c0,78.311,63.487,141.787,141.781,141.787   c78.295,0,141.771-63.476,141.771-141.787C283.902,63.385,220.427-0.085,142.132-0.085z M142.132,252.682   c-61.2,0-110.979-49.79-110.979-110.997c0-61.195,49.778-110.968,110.979-110.968c61.201,0,110.98,49.772,110.98,110.968   C253.112,202.892,203.333,252.682,142.132,252.682z"/>
	<polygon fill="#000000" points="184.98,78.47 144.312,119.139 103.642,78.47 79.356,102.756 120.025,143.425 79.355,184.094 103.641,208.379    144.312,167.711 184.98,208.38 209.266,184.095 168.597,143.425 209.266,102.756  "/>
</g>
</svg>